<?xml version="1.0" encoding="iso-8859-1"?>
<!-- Generator: Adobe Illustrator 19.0.0, SVG Export Plug-In . SVG Version: 6.00 Build 0)  -->
<svg version="1.1" id="Layer_1" xmlns="http://www.w3.org/2000/svg" xmlns:xlink="http://www.w3.org/1999/xlink" x="0px" y="0px"
	 viewBox="0 0 512 512" style="enable-background:new 0 0 512 512;" xml:space="preserve">
<circle style="fill:#FF8C8A;" cx="256" cy="256" r="256"/>
<path style="fill:#FA7876;" d="M502.084,326.773C471.375,433.735,372.834,512,256,512c-4.947,0-9.855-0.156-14.729-0.428
	l-104.622-109.88l159.732,0.634L161.422,263.62l122.803,8.071l16.953-145.825L502.084,326.773z"/>
<path style="fill:#F9F9F9;" d="M223.801,290.289l3.974-18.598l-66.354-8.071c0,0,21.833-9.277,28.375-18.314
	c6.536-9.038,4.997-22.411,4.724-38.641c-1.395-5.519-2.14-11.078-2.14-16.463v-20.438c0-80.266,127.239-80.266,127.239,0v20.438
	c0,5.386-0.745,10.944-2.14,16.463c-0.272,16.23-1.812,29.603,4.724,38.641c6.542,9.038,28.375,18.314,28.375,18.314l-66.354,8.071
	l3.974,18.598c39.219,16.908,87.153-6.464,87.153,59.829v52.319H264.865h-17.731H136.649v-52.319
	C136.649,283.824,184.583,307.197,223.801,290.289z"/>
<path style="fill:#EAEAED;" d="M249.219,109.875c33.9-3.057,70.4,16.891,70.4,59.884v20.438c0,5.386-0.745,10.939-2.14,16.463
	c-0.272,16.23-1.812,29.603,4.724,38.641c6.542,9.038,28.375,18.314,28.375,18.314l-66.354,8.071l3.974,18.592
	c39.219,16.914,87.153-6.459,87.153,59.834v52.319h-13.562v-52.319c0-66.293-47.934-42.92-87.153-59.834l-3.974-18.592l66.354-8.071
	c0,0-21.833-9.277-28.375-18.314c-6.536-9.038-4.997-22.411-4.724-38.641c1.395-5.525,2.14-11.078,2.14-16.463v-20.438
	C306.057,132.485,278.616,112.532,249.219,109.875z"/>
<g>
</g>
<g>
</g>
<g>
</g>
<g>
</g>
<g>
</g>
<g>
</g>
<g>
</g>
<g>
</g>
<g>
</g>
<g>
</g>
<g>
</g>
<g>
</g>
<g>
</g>
<g>
</g>
<g>
</g>
</svg>
